<svg width="207" height="46" viewBox="0 0 207 46" fill="none" xmlns="http://www.w3.org/2000/svg">
<path fill-rule="evenodd" clip-rule="evenodd" d="M49.8333 0H42.1667H34.5V7.66667L30.6667 7.66667H29.1333V13.8H24.5334V7.66667H23L19.1667 7.66667V0H11.5H3.83333V7.66667L0 7.66667V15.3333V23H7.66667V30.6667H15.3333H23H30.6667H38.3333H46V23H53.6667V15.3333V7.66667L49.8333 7.66667V0ZM23 30.6667H15.3333V38.3334H23V46H30.6667V38.3334H38.3333V30.6667H30.6667H23Z" fill="url(#paint0_linear_32_498)"/>
<path d="M85.7448 25.9062V8.21094H91.8581V25.9062C91.8581 28.9661 91.3828 31.349 90.4323 33.0547C88.6615 36.1797 85.2826 37.7422 80.2956 37.7422C75.3086 37.7422 71.9232 36.1797 70.1393 33.0547C69.1888 31.349 68.7136 28.9661 68.7136 25.9062V8.21094H74.8268V25.9062C74.8268 27.8854 75.0612 29.3307 75.53 30.2422C76.2591 31.8568 77.8477 32.6641 80.2956 32.6641C82.7305 32.6641 84.3125 31.8568 85.0417 30.2422C85.5104 29.3307 85.7448 27.8854 85.7448 25.9062ZM120.862 8.21094L111.233 26.1797V37H105.217V26.1797L95.2565 8.21094H102.346L108.323 20.75L114.046 8.21094H120.862ZM141.331 25.9062V8.21094H147.444V25.9062C147.444 28.9661 146.969 31.349 146.018 33.0547C144.247 36.1797 140.869 37.7422 135.882 37.7422C130.895 37.7422 127.509 36.1797 125.725 33.0547C124.775 31.349 124.299 28.9661 124.299 25.9062V8.21094H130.413V25.9062C130.413 27.8854 130.647 29.3307 131.116 30.2422C131.845 31.8568 133.434 32.6641 135.882 32.6641C138.316 32.6641 139.898 31.8568 140.628 30.2422C141.096 29.3307 141.331 27.8854 141.331 25.9062ZM178.714 37H170.979L162.092 24.4219L159.221 27.3711V37H153.303V8.21094H159.221V20.0664L170.335 8.21094H178.108L166.311 20.0664L178.714 37ZM192.561 32.8398C193.98 32.8398 195.133 32.6836 196.018 32.3711C197.698 31.7721 198.538 30.6589 198.538 29.0312C198.538 28.0807 198.121 27.3451 197.288 26.8242C196.454 26.3164 195.146 25.8672 193.362 25.4766L190.315 24.793C187.32 24.1159 185.25 23.3802 184.104 22.5859C182.164 21.2578 181.194 19.181 181.194 16.3555C181.194 13.7773 182.132 11.6354 184.007 9.92969C185.882 8.22396 188.635 7.37109 192.268 7.37109C195.302 7.37109 197.887 8.17839 200.022 9.79297C202.171 11.3945 203.297 13.7253 203.401 16.7852H197.62C197.516 15.0534 196.76 13.8229 195.354 13.0938C194.417 12.612 193.251 12.3711 191.858 12.3711C190.309 12.3711 189.072 12.6836 188.147 13.3086C187.223 13.9336 186.76 14.806 186.76 15.9258C186.76 16.9544 187.216 17.7227 188.128 18.2305C188.714 18.569 189.964 18.9661 191.878 19.4219L196.839 20.6133C199.013 21.1341 200.654 21.8307 201.76 22.7031C203.479 24.0573 204.339 26.0169 204.339 28.582C204.339 31.2122 203.329 33.3997 201.311 35.1445C199.306 36.8763 196.467 37.7422 192.796 37.7422C189.046 37.7422 186.096 36.8893 183.948 35.1836C181.799 33.4648 180.725 31.1081 180.725 28.1133H186.467C186.65 29.4284 187.008 30.4115 187.542 31.0625C188.518 32.2474 190.191 32.8398 192.561 32.8398Z" fill="white"/>
<defs>
<linearGradient id="paint0_linear_32_498" x1="26.79" y1="-1.11833e-08" x2="27.2452" y2="45.9959" gradientUnits="userSpaceOnUse">
<stop stop-color="#FFC5B4" stop-opacity="0"/>
<stop offset="0.0001" stop-color="#1246FF" stop-opacity="0.31"/>
<stop offset="1" stop-color="#F21B2D"/>
</linearGradient>
</defs>
</svg>
